<?xml version="1.0" standalone="no"?>
<!DOCTYPE svg PUBLIC "-//W3C//DTD SVG 20010904//EN"
 "http://www.w3.org/TR/2001/REC-SVG-20010904/DTD/svg10.dtd">
<svg version="1.0" xmlns="http://www.w3.org/2000/svg"
 width="1428.000000pt" height="1428.000000pt" viewBox="0 0 1428.000000 1428.000000"
 preserveAspectRatio="xMidYMid meet">
<metadata>
Created by potrace 1.16, written by Peter Selinger 2001-2019
</metadata>
<g transform="translate(0.000000,1428.000000) scale(0.100000,-0.100000)"
fill="#000000" stroke="none">
<path d="M7075 13926 c-27 -18 -77 -48 -110 -66 -33 -18 -85 -47 -115 -65 -78
-47 -223 -131 -300 -175 -36 -20 -110 -63 -165 -95 -98 -57 -132 -76 -197
-113 -200 -114 -326 -188 -340 -200 -10 -8 -18 -12 -18 -8 0 3 -28 -11 -62
-33 -35 -21 -121 -72 -193 -113 -71 -41 -168 -98 -215 -125 -47 -28 -101 -59
-120 -69 -19 -11 -69 -39 -110 -63 -41 -24 -115 -67 -165 -96 -164 -94 -299
-172 -374 -216 -152 -89 -187 -109 -246 -140 -33 -17 -78 -44 -100 -59 -22
-15 -130 -78 -240 -140 -110 -62 -247 -141 -305 -175 -58 -34 -125 -73 -150
-87 -25 -14 -117 -67 -205 -118 -88 -51 -250 -145 -360 -208 -110 -63 -240
-138 -290 -167 -49 -29 -106 -62 -125 -73 -19 -11 -105 -60 -190 -109 -85 -50
-247 -143 -360 -208 -113 -65 -222 -129 -242 -142 -21 -12 -40 -23 -42 -23 -4
0 -219 -124 -296 -170 -8 -5 -59 -34 -112 -65 l-98 -56 0 -3419 0 -3418 138
-80 c180 -104 612 -352 637 -366 11 -6 22 -13 25 -16 3 -3 19 -12 35 -21 17
-9 199 -114 405 -234 206 -120 411 -238 455 -262 44 -25 85 -49 90 -53 6 -4
62 -37 125 -73 184 -103 382 -217 420 -242 19 -12 85 -50 145 -85 61 -34 130
-74 155 -88 25 -14 115 -66 200 -115 85 -49 223 -128 305 -175 83 -46 161 -92
175 -101 35 -25 173 -99 183 -99 5 0 12 -4 15 -8 4 -4 0 -4 -8 0 -8 4 -6 0 5
-8 11 -9 25 -14 33 -11 7 2 11 1 8 -4 -3 -4 27 -26 67 -48 40 -22 116 -65 170
-97 54 -31 103 -54 109 -50 7 4 8 3 4 -4 -5 -9 42 -44 64 -47 3 0 16 -8 30
-17 24 -15 345 -201 385 -222 11 -6 34 -20 50 -31 17 -12 50 -31 75 -44 25
-12 72 -38 105 -58 33 -19 74 -43 90 -53 17 -9 75 -43 130 -75 55 -32 204
-117 330 -190 127 -73 286 -165 355 -205 278 -162 400 -230 408 -230 13 0 163
83 247 138 11 6 27 15 35 19 8 4 38 20 65 36 47 28 129 75 543 313 92 54 181
105 197 115 17 10 41 23 54 29 13 6 44 24 68 40 24 17 46 30 48 30 3 0 26 13
52 29 27 15 156 90 288 166 132 77 243 143 246 148 3 5 9 8 13 8 16 -1 35 12
29 22 -3 6 -1 7 5 3 6 -4 55 19 109 50 54 32 123 71 153 88 30 16 57 33 58 38
2 4 8 8 13 8 5 0 38 18 74 40 36 22 68 40 70 40 3 0 56 30 118 66 61 36 119
70 127 74 8 5 44 26 80 46 36 21 67 41 68 46 2 4 8 8 14 8 5 0 69 34 141 76
73 42 148 85 167 96 19 11 40 24 45 28 6 4 62 37 125 72 126 71 532 304 675
388 50 29 124 72 165 95 41 23 119 67 173 98 54 30 101 58 105 63 4 4 0 4 -8
-1 -8 -5 -12 -4 -7 0 4 5 13 10 21 11 14 2 450 250 553 315 34 21 65 39 68 39
3 0 22 10 43 23 20 13 62 37 92 54 30 17 96 54 145 83 50 29 196 114 325 188
129 74 254 146 278 159 l42 25 0 3416 0 3417 -77 47 c-43 25 -94 55 -113 66
-113 62 -155 87 -158 94 -2 4 -8 8 -14 8 -6 0 -71 36 -145 80 -74 44 -136 80
-138 80 -2 0 -28 14 -57 32 -93 55 -550 319 -633 366 -44 24 -92 53 -107 63
-14 11 -28 19 -31 19 -2 0 -56 30 -118 66 -63 37 -220 127 -349 202 -129 74
-289 167 -355 205 -66 38 -140 80 -165 94 -25 14 -65 38 -90 53 -25 15 -169
99 -320 185 -151 87 -286 165 -300 175 -45 32 -131 71 -141 65 -5 -4 -8 -1 -7
5 2 7 -17 23 -42 37 -25 13 -99 56 -165 95 -66 39 -149 88 -185 108 -36 21
-108 63 -160 93 -154 89 -275 159 -352 203 -40 23 -154 89 -253 147 -99 57
-205 118 -235 134 -30 17 -89 50 -130 75 -101 61 -308 180 -455 263 -66 37
-140 80 -165 95 -176 107 -450 260 -466 259 -10 0 -41 -15 -69 -33z m1106
-3638 c29 -63 164 -323 170 -328 4 -3 10 -16 14 -30 4 -14 10 -27 14 -30 3 -3
33 -59 66 -125 174 -345 280 -543 289 -538 5 3 6 1 3 -5 -4 -5 19 -61 52 -124
32 -62 106 -205 163 -318 58 -113 152 -295 208 -405 57 -110 138 -267 182
-350 43 -82 78 -153 78 -158 0 -4 5 -5 12 -1 7 4 8 3 4 -4 -4 -6 6 -35 22 -64
16 -29 76 -143 132 -253 57 -110 133 -258 170 -330 37 -71 110 -213 162 -315
53 -102 124 -239 158 -305 35 -66 119 -230 188 -365 68 -135 133 -254 143
-266 11 -11 17 -23 13 -26 -10 -10 16 -49 28 -42 7 4 8 3 4 -4 -6 -11 84 -194
269 -547 102 -194 189 -362 277 -535 50 -96 112 -217 139 -268 28 -50 45 -92
39 -92 -5 0 -603 0 -1327 0 l-1317 0 -38 67 c-20 38 -42 78 -48 91 -32 73
-134 251 -141 247 -4 -3 -5 5 -1 17 4 16 2 19 -8 13 -9 -5 -11 -4 -6 3 4 6 -4
28 -17 49 -13 21 -43 76 -67 123 -24 47 -53 101 -65 120 -12 19 -52 94 -90
165 -37 72 -93 177 -125 235 -60 110 -118 218 -192 360 -25 47 -60 112 -78
145 -18 33 -53 98 -78 145 -25 47 -61 112 -78 145 l-33 60 -1256 0 -1257 0
-55 -105 c-94 -180 -275 -523 -299 -567 -13 -24 -20 -43 -16 -43 4 0 2 -4 -4
-8 -19 -12 -134 -238 -126 -247 4 -5 2 -5 -4 -2 -7 4 -17 -6 -25 -25 -7 -18
-36 -75 -64 -128 -28 -52 -54 -103 -58 -112 -6 -17 21 -18 482 -18 l489 0 62
108 c35 59 76 132 93 162 16 30 35 62 42 70 33 42 85 141 79 151 -4 7 -3 9 3
6 5 -4 16 6 24 21 7 15 27 48 42 75 l29 47 429 0 c236 0 429 -2 429 -5 0 -7
-207 -384 -278 -505 -12 -19 -31 -55 -43 -80 -13 -25 -32 -61 -44 -80 -12 -19
-40 -69 -62 -110 -23 -41 -69 -124 -103 -185 -113 -200 -150 -268 -150 -282 0
-7 -4 -13 -10 -13 -5 0 -21 -25 -35 -55 l-26 -55 -1350 0 -1350 0 34 62 c96
176 117 219 112 229 -4 5 -2 8 5 7 10 -3 31 35 175 307 31 61 71 135 88 165
86 155 137 253 137 260 0 5 3 10 8 12 4 2 21 30 38 63 42 82 115 218 187 350
33 61 80 148 105 195 24 47 61 114 80 150 109 199 142 263 142 270 0 5 3 10 8
12 4 2 21 30 38 63 28 54 128 241 207 385 16 30 52 98 80 150 49 93 66 125
174 323 29 54 53 102 53 107 0 5 3 10 8 12 4 2 22 32 41 68 18 36 49 93 67
128 19 35 31 69 28 75 -4 7 -3 9 1 4 5 -4 25 23 45 60 20 38 50 93 67 123 30
53 57 104 148 275 23 44 68 127 99 185 31 57 56 108 56 112 0 5 5 8 12 8 6 0
8 3 5 7 -4 3 -3 11 2 17 5 6 26 43 46 81 21 39 50 93 65 120 15 28 47 86 70
130 24 44 53 98 65 120 89 165 114 215 108 215 -5 0 -3 4 3 8 13 8 184 317
184 331 0 5 3 11 8 13 4 2 27 41 51 88 42 80 73 140 127 238 13 24 49 90 80
147 31 58 60 105 65 105 5 0 29 -41 54 -90 29 -58 50 -88 57 -84 7 4 8 3 4 -5
-4 -6 9 -41 29 -79 80 -149 150 -280 179 -337 17 -33 34 -61 39 -63 4 -2 7 -7
7 -12 0 -19 178 -339 185 -332 5 4 5 2 2 -4 -4 -6 16 -54 44 -105 50 -92 137
-254 167 -314 9 -16 18 -32 21 -35 3 -3 26 -45 51 -95 24 -49 61 -120 82 -156
34 -61 122 -226 247 -464 82 -154 142 -267 179 -335 19 -36 57 -105 84 -154
26 -49 48 -93 48 -98 0 -5 5 -6 12 -2 6 4 8 3 5 -3 -4 -6 16 -53 44 -104 28
-52 74 -137 102 -189 27 -52 63 -120 80 -150 16 -30 51 -95 77 -145 26 -49 65
-121 86 -160 20 -38 58 -108 82 -155 25 -47 77 -143 116 -215 39 -71 80 -149
90 -172 11 -24 24 -43 29 -43 6 0 7 -3 4 -7 -4 -3 -3 -11 2 -17 9 -11 51 -90
129 -236 24 -47 73 -137 107 -200 34 -63 92 -171 128 -240 36 -69 81 -154 100
-190 l35 -65 527 -3 c500 -2 527 -1 520 15 -4 10 -10 26 -12 35 -3 10 -10 15
-17 11 -6 -3 -8 -3 -4 1 4 5 -32 83 -79 175 -48 91 -103 199 -123 239 -20 40
-40 69 -45 65 -4 -5 -5 -2 -1 4 9 16 -17 56 -29 45 -5 -4 -5 -2 -1 5 6 11 -12
52 -89 198 -61 115 -267 516 -297 578 -16 32 -33 55 -38 52 -5 -3 -7 0 -5 8 6
14 -130 286 -149 299 -6 4 -8 8 -5 8 4 0 -31 73 -77 163 -46 89 -88 161 -93
160 -6 -2 -8 4 -5 12 3 8 -8 38 -24 67 -38 68 -117 220 -277 533 -70 138 -150
292 -177 344 -28 52 -95 182 -150 290 -55 108 -115 223 -133 256 -18 33 -82
158 -143 277 -60 120 -113 214 -117 210 -5 -4 -6 -2 -2 3 7 13 -240 491 -252
488 -6 -2 -8 4 -5 12 3 8 -3 29 -14 47 -11 18 -47 85 -80 150 -33 64 -63 114
-66 112 -3 -2 -4 -1 -1 2 2 4 -27 67 -65 140 l-69 134 437 0 438 0 15 -32z"/>
<path d="M6189 8708 c-7 -18 -36 -73 -64 -123 -59 -103 -159 -288 -242 -447
-10 -18 -22 -36 -27 -39 -5 -4 -6 -14 -3 -24 4 -9 3 -14 -2 -11 -5 3 -28 -31
-52 -77 -24 -45 -57 -107 -74 -138 -75 -141 -85 -161 -79 -170 3 -5 1 -8 -5
-7 -7 2 -31 -33 -54 -77 -24 -44 -64 -120 -90 -168 -26 -49 -44 -93 -41 -99 4
-6 3 -8 -3 -5 -11 7 -99 -148 -97 -170 1 -7 -2 -10 -7 -7 -5 3 -9 -2 -9 -10 0
-14 89 -16 875 -16 l875 0 -40 78 c-22 42 -60 113 -85 157 -25 44 -66 121 -91
170 -26 50 -51 93 -56 96 -5 3 -10 10 -11 15 -1 5 -6 8 -10 6 -5 -1 -6 2 -2 8
3 5 -26 69 -66 142 -40 73 -90 167 -112 208 -22 41 -62 116 -90 165 -28 50
-70 128 -94 175 -25 47 -57 108 -73 135 -15 28 -47 86 -70 130 -83 155 -80
153 -101 103z"/>
</g>
</svg>
